<?xml version="1.0" encoding="UTF-8" standalone="no"?>
<!-- Created with Inkscape (http://www.inkscape.org/) -->

<svg
   xmlns:dc="http://purl.org/dc/elements/1.1/"
   xmlns:cc="http://creativecommons.org/ns#"
   xmlns:rdf="http://www.w3.org/1999/02/22-rdf-syntax-ns#"
   xmlns:svg="http://www.w3.org/2000/svg"
   xmlns="http://www.w3.org/2000/svg"
   xmlns:xlink="http://www.w3.org/1999/xlink"
   xmlns:sodipodi="http://sodipodi.sourceforge.net/DTD/sodipodi-0.dtd"
   xmlns:inkscape="http://www.inkscape.org/namespaces/inkscape"
   version="1.1"
   id="svg8"
   inkscape:version="0.92.2 2405546, 2018-03-11"
   sodipodi:docname="fena-grb.svg">
  <defs
     id="defs2">
    <clipPath
       clipPathUnits="userSpaceOnUse"
       id="clipPath7848">
      <g
         inkscape:label="Clip"
         id="use7850"
         style="fill:#5e5e5e;fill-opacity:1">
        <rect
           style="fill:#5e5e5e;fill-opacity:1;stroke-width:1.13218164"
           id="rect920"
           width="9.2456512"
           height="41.399471"
           x="171.27278"
           y="138.6169" />
        <rect
           transform="rotate(90)"
           y="-179.60486"
           x="157.78433"
           height="35.968273"
           width="9.2456512"
           id="rect922"
           style="fill:#5e5e5e;fill-opacity:1;stroke-width:1.0553062" />
        <rect
           style="fill:#5e5e5e;fill-opacity:1;stroke-width:0.8060655"
           id="rect924"
           width="9.2456512"
           height="20.984726"
           x="-152.88223"
           y="-179.82738"
           transform="scale(-1)" />
      </g>
    </clipPath>
    <clipPath
       clipPathUnits="userSpaceOnUse"
       id="clipPath7859">
      <g
         style="stroke:#5e5e5e;stroke-opacity:1"
         inkscape:label="Clip"
         id="use7861">
        <rect
           y="138.6169"
           x="93.928848"
           height="41.21048"
           width="41.21048"
           id="rect14541"
           style="fill:#333333;stroke:#5e5e5e;stroke-width:0.26458332;stroke-opacity:1" />
        <path
           sodipodi:nodetypes="cccc"
           inkscape:connector-curvature="0"
           id="path14543"
           d="m 110.12275,146.34769 c -0.007,-0.0733 14.98655,-0.27631 15.44757,0 v 15.44757 z"
           style="fill:#ffffff;stroke:#5e5e5e;stroke-width:0;stroke-linecap:round;stroke-linejoin:round;stroke-miterlimit:4;stroke-dasharray:none;stroke-opacity:1;paint-order:normal" />
        <path
           style="fill:#ffffff;stroke:#5e5e5e;stroke-width:0;stroke-linecap:round;stroke-linejoin:round;stroke-miterlimit:4;stroke-dasharray:none;stroke-opacity:1;paint-order:normal"
           d="m 119.33887,172.43619 c 0,0.037 -15.03637,0.19413 -15.44757,0 v -15.44757 z"
           id="path14545"
           inkscape:connector-curvature="0"
           sodipodi:nodetypes="cccc" />
      </g>
    </clipPath>
    <clipPath
       clipPathUnits="userSpaceOnUse"
       id="clipPath7871">
      <use
         x="0"
         y="0"
         xlink:href="#g7867"
         id="use7873"
         width="100%"
         height="100%"
         transform="translate(0,-1.2316791e-5)" />
    </clipPath>
  </defs>
  <sodipodi:namedview
     id="base"
     pagecolor="#ffffff"
     bordercolor="#666666"
     borderopacity="1.0"
     inkscape:pageopacity="0.0"
     inkscape:pageshadow="2"
     inkscape:zoom="3.959798"
     inkscape:cx="211.19613"
     inkscape:cy="32.213365"
     inkscape:document-units="mm"
     inkscape:current-layer="layer1"
     inkscape:document-rotation="0"
     showgrid="false"
     showguides="true"
     inkscape:guide-bbox="true"
     inkscape:window-width="1600"
     inkscape:window-height="873"
     inkscape:window-x="0"
     inkscape:window-y="27"
     inkscape:window-maximized="1"
     inkscape:snap-global="false"
     fit-margin-top="4"
     fit-margin-left="4"
     fit-margin-right="4"
     fit-margin-bottom="4"
     showborder="true" />
  <metadata
     id="metadata5">
    <rdf:RDF>
      <cc:Work
         rdf:about="">
        <dc:format>image/svg+xml</dc:format>
        <dc:type
           rdf:resource="http://purl.org/dc/dcmitype/StillImage" />
        <dc:title />
      </cc:Work>
    </rdf:RDF>
  </metadata>
  <g
     inkscape:label="Layer 1"
     inkscape:groupmode="layer"
     id="layer1"
     transform="translate(16.135554,-93.206142)">
    <g
       id="g6837"
       style="fill:#5e5e5e;fill-opacity:1">
      <g
         transform="translate(0,1.2316791e-5)"
         inkscape:label="Clip"
         id="g7867"
         style="fill:#5e5e5e;fill-opacity:1">
        <rect
           y="138.6169"
           x="22.086508"
           height="41.399471"
           width="9.2456512"
           id="rect7772"
           style="fill:#5e5e5e;fill-opacity:1;stroke-width:1.13218164" />
        <rect
           transform="rotate(90)"
           style="fill:#5e5e5e;fill-opacity:1;stroke-width:1.02083039"
           id="rect7774"
           width="9.2456512"
           height="33.65657"
           x="156.5927"
           y="-40.762081" />
        <path
           sodipodi:nodetypes="cccccc"
           inkscape:connector-curvature="0"
           id="rect7776"
           d="m 41.930993,148.12508 v 0 h -28.13708 v -9.50819 h 20.326554 z"
           style="fill:#5e5e5e;fill-opacity:1;stroke-width:0.93337935" />
        <path
           style="fill:#5e5e5e;fill-opacity:1;stroke-width:0.84065253"
           d="m 14.740841,174.44258 v 0 l -9.2456518,-5.96437 v -16.85984 h 9.2456518 z"
           id="path7837"
           inkscape:connector-curvature="0"
           sodipodi:nodetypes="cccccc" />
      </g>
    </g>
    <path
       transform="matrix(-0.8638221,-0.50379696,0.50199167,-0.86487246,0,0)"
       d="m -151.91737,-93.596647 a 16.925047,16.862976 0 0 1 -2.70697,-14.334983 16.925047,16.862976 0 0 1 9.52696,-11.07553"
       sodipodi:arc-type="arc"
       sodipodi:end="4.2974159"
       sodipodi:start="2.5083587"
       sodipodi:ry="16.862976"
       sodipodi:rx="16.925047"
       sodipodi:cy="-103.57539"
       sodipodi:cx="-138.27379"
       sodipodi:type="arc"
       id="path7810"
       style="fill:none;stroke:#8a8a8a;stroke-width:6.67924356;stroke-miterlimit:4;stroke-dasharray:none;stroke-opacity:1"
       sodipodi:open="true" />
    <g
       id="g7878"
       transform="matrix(0.68657936,0.68657936,-0.68657936,0.68657936,130.24762,3.8209163)"
       style="fill:none;fill-opacity:1;stroke:#5e5e5e;stroke-opacity:1">
      <path
         transform="matrix(0.96619825,-0.25780019,0.25984135,0.96565132,0,0)"
         d="m 32.525788,185.71432 a 17.212555,17.14967 0 0 1 -23.5713788,-5.58166 17.212555,17.14967 0 0 1 5.3810828,-23.53652 17.212555,17.14967 0 0 1 23.672189,5.14072 l -14.440159,9.33348 z"
         sodipodi:arc-type="slice"
         sodipodi:end="5.7077064"
         sodipodi:start="1.023419"
         sodipodi:ry="17.14967"
         sodipodi:rx="17.212555"
         sodipodi:cy="171.07034"
         sodipodi:cx="23.567522"
         sodipodi:type="arc"
         id="path7783"
         style="fill:none;fill-opacity:1;stroke:#5e5e5e;stroke-width:7.89300871;stroke-linecap:round;stroke-linejoin:round;stroke-miterlimit:4;stroke-dasharray:none;stroke-opacity:1;paint-order:normal" />
    </g>
    <g
       id="g936">
      <path
         style="fill:#8a8a8a;fill-opacity:1;stroke:#949494;stroke-width:0;stroke-linecap:round;stroke-linejoin:round;stroke-miterlimit:4;stroke-dasharray:none;stroke-opacity:1;paint-order:normal"
         d="m 143.63658,138.6169 30.5169,0.0121 v 8.19182 h -22.45825 0.54354 z"
         id="path6823"
         inkscape:connector-curvature="0"
         sodipodi:nodetypes="cccccc" />
      <path
         style="fill:#8a8a8a;fill-opacity:1;stroke:#dedede;stroke-width:0;stroke-linecap:round;stroke-linejoin:round;stroke-miterlimit:4;stroke-dasharray:none;stroke-opacity:1;paint-order:normal"
         d="m 152.23998,158.84265 v -13.90557 0 l -8.6034,-6.32018 v 20.22575 z"
         id="path6825"
         inkscape:connector-curvature="0"
         sodipodi:nodetypes="cccccc" />
      <rect
         y="138.6169"
         x="168.9341"
         height="41.399471"
         width="8.4632483"
         id="rect7800"
         style="fill:#5e5e5e;fill-opacity:1;stroke-width:1.0832181" />
      <rect
         style="fill:#5e5e5e;fill-opacity:1;stroke-width:1.00966728"
         id="rect7802"
         width="9.2456512"
         height="32.9245"
         x="157.78433"
         y="-176.56108"
         transform="rotate(90)" />
      <rect
         transform="scale(-1)"
         y="-179.82738"
         x="-152.09982"
         height="20.984726"
         width="8.4632483"
         id="rect7804"
         style="fill:#5e5e5e;fill-opacity:1;stroke-width:0.77120548" />
    </g>
    <path
       style="fill:#5e5e5e;fill-opacity:1;stroke:#5e5e5e;stroke-width:0.26213944;stroke-opacity:1"
       d="m 93.928514,138.71084 v 41.01682 h 40.644136 v -41.01682 z m 26.184336,7.55449 c 2.66561,9.2e-4 4.85199,0.0367 5.02251,0.13989 v 15.37488 l -15.23548,-15.37488 c -0.004,-0.0456 5.77027,-0.14143 10.21297,-0.13989 z m -16.35895,10.73098 15.23548,15.37488 c 0,0.0368 -14.82993,0.19322 -15.23548,0 z"
       id="rect7794"
       inkscape:connector-curvature="0" />
    <path
       style="fill:#8a8a8a;fill-opacity:1;stroke:none;stroke-width:0;stroke-linecap:round;stroke-linejoin:round;stroke-miterlimit:4;stroke-dasharray:none;stroke-opacity:1;paint-order:normal"
       d="m 125.04217,138.5226 -22.06325,0.0685 7.1636,7.94563 14.89965,-0.0473 z"
       id="rect7829"
       inkscape:connector-curvature="0"
       sodipodi:nodetypes="ccccc" />
    <path
       style="fill:#8a8a8a;fill-opacity:1;stroke:none;stroke-width:0;stroke-linecap:round;stroke-linejoin:round;stroke-miterlimit:4;stroke-dasharray:none;stroke-opacity:1;paint-order:normal"
       d="m 103.92471,172.26914 14.78226,-0.0334 0.43145,0.3675 8.25827,7.22415 H 103.8913 Z"
       id="rect7827"
       inkscape:connector-curvature="0"
       sodipodi:nodetypes="cccccc" />
    <g
       aria-label="Servis i radionica  "
       style="font-style:normal;font-variant:normal;font-weight:bold;font-stretch:normal;font-size:17.78565025px;line-height:11.11603069px;font-family:'Amatic SC';-inkscape-font-specification:'Amatic SC Bold';letter-spacing:0px;word-spacing:0px;fill:#5e5e5e;fill-opacity:1;stroke:none;stroke-width:0.44464126px;stroke-linecap:butt;stroke-linejoin:miter;stroke-opacity:1"
       id="text14558">
      <path
         d="m 3.2882186,112.2658 q 0,1.43293 -1.1637096,2.26663 -1.0421279,0.74686 -2.52716025,0.74686 -1.90188345,0 -3.03953985,-1.18976 0,0.50369 -0.00868,0.56448 -0.060791,0.3387 -0.3560604,0.3387 -0.3647447,0 -0.3647447,-0.48633 v -2.01478 q 0,-0.49501 0.3647447,-0.49501 0.1563192,0 0.260532,0.10421 0.07816,0.33001 0.1650036,0.66002 0.1650036,0.62527 0.7989648,1.12897 0.8076491,0.66001 2.17978425,0.66001 1.16370954,0 1.99741185,-0.5558 0.9639684,-0.64265 0.9639684,-1.75425 0,-1.36345 -1.65003592,-1.85846 -1.52845432,-0.36474 -3.05690868,-0.73817 -1.6500359,-0.60791 -1.6500359,-2.24926 0,-1.29398 1.0508124,-2.08426 0.9465995,-0.71212 2.28399705,-0.71212 1.52845435,0 2.63137305,0.96397 0,-0.72949 0.3647448,-0.72949 0.3647448,0 0.3647448,0.48633 v 1.85846 q 0,0.48632 -0.3647448,0.48632 -0.1563192,0 -0.2518476,-0.10421 l -0.1650036,-0.61659 q -0.1389504,-0.57317 -0.6947519,-1.03345 -0.71212081,-0.58185 -1.85846155,-0.58185 -1.03344355,0 -1.78030195,0.51238 -0.8510711,0.58185 -0.8510711,1.57188 0,1.30266 1.6500359,1.76293 l 3.0569086,0.71212 q 1.650036,0.63396 1.650036,2.37952 z"
         style="font-style:normal;font-variant:normal;font-weight:bold;font-stretch:normal;font-family:'Estrangelo Antioch';-inkscape-font-specification:'Estrangelo Antioch Bold';fill:#5e5e5e;fill-opacity:1;stroke-width:0.44464126px"
         id="path910" />
      <path
         d="m 13.579232,113.90716 q 0,0.47764 -1.458979,0.9987 -0.963968,0.33869 -1.971358,0.33869 -1.6500363,0 -2.8050615,-1.07686 -1.1550251,-1.07687 -1.1550251,-2.71822 0,-1.5024 1.1029187,-2.50979 1.0768656,-0.98134 2.5879511,-0.98134 1.6500358,0 2.6747948,1.06818 1.024759,1.06818 1.007391,2.71822 H 6.8575071 q 0.173688,1.30266 1.0681812,2.07557 0.9031775,0.76423 2.2232067,0.76423 1.623982,0 2.857167,-0.88581 0.165004,-0.12158 0.260532,-0.12158 0.312638,0 0.312638,0.33001 z m -0.677383,-2.82243 q -0.199741,-1.11161 -1.042128,-1.78031 -0.842386,-0.67738 -1.9800428,-0.67738 -1.1463408,0 -1.9800431,0.6687 -0.8337024,0.6687 -1.0334436,1.78899 z"
         style="font-style:normal;font-variant:normal;font-weight:bold;font-stretch:normal;font-family:'Estrangelo Antioch';-inkscape-font-specification:'Estrangelo Antioch Bold';fill:#5e5e5e;fill-opacity:1;stroke-width:0.44464126px"
         id="path912" />
      <path
         d="m 23.236284,109.29574 q 0,0.38211 -0.382113,0.38211 -0.130266,0 -0.547117,-0.37343 -0.416852,-0.38211 -0.798965,-0.38211 -0.703437,0 -1.87583,0.87713 -0.442905,0.33 -1.606614,1.37213 v 3.10033 q 0.729489,0 0.660014,-0.009 0.442904,0.0521 0.442904,0.37343 0,0.36474 -0.486326,0.36474 h -1.95399 q -0.495011,0 -0.495011,-0.36474 0,-0.32133 0.442905,-0.37343 -0.06948,0.009 0.660014,0.009 v -5.15853 q -0.720805,0 -0.668699,0.009 -0.43422,-0.0521 -0.43422,-0.38211 0,-0.36475 0.486327,-0.36475 h 1.346082 v 1.8411 q 1.050812,-0.9466 1.571876,-1.30266 1.042128,-0.72081 1.867146,-0.72081 0.442904,0 1.076865,0.34738 0.694752,0.38211 0.694752,0.75554 z"
         style="font-style:normal;font-variant:normal;font-weight:bold;font-stretch:normal;font-family:'Estrangelo Antioch';-inkscape-font-specification:'Estrangelo Antioch Bold';fill:#5e5e5e;fill-opacity:1;stroke-width:0.44464126px"
         id="path914" />
      <path
         d="m 34.786536,108.47941 q 0.112898,0.10421 0.112898,0.26053 0,0.33001 -0.442905,0.38211 0.07816,-0.009 -0.660014,-0.009 z m -6.06171,0 q 0.112897,0.10421 0.112897,0.26053 0,0.33001 -0.442905,0.38211 0.07816,-0.009 -0.660014,-0.009 z m 6.174608,0.26053 q 0,0.33001 -0.442905,0.38211 0.07816,-0.009 -0.660014,-0.009 l -2.787692,5.87934 h -1.233185 l -2.82243,-5.87934 q -0.738174,0 -0.660014,0.009 -0.442905,-0.0521 -0.442905,-0.38211 0,-0.36475 0.460273,-0.36475 h 2.066888 q 0.460273,0 0.460273,0.36475 0,0.33001 -0.442905,0.38211 0.07816,-0.009 -0.660014,-0.009 l 2.501107,5.14985 h 0.321323 l 2.449001,-5.14985 q -0.738174,0 -0.660015,0.009 -0.442904,-0.0521 -0.442904,-0.38211 0,-0.36475 0.460273,-0.36475 h 2.075571 q 0.460274,0 0.460274,0.36475 z"
         style="font-style:normal;font-variant:normal;font-weight:bold;font-stretch:normal;font-family:'Estrangelo Antioch';-inkscape-font-specification:'Estrangelo Antioch Bold';fill:#5e5e5e;fill-opacity:1;stroke-width:0.44464126px"
         id="path916" />
      <path
         d="m 39.328478,106.63831 h -1.076865 v -1.88451 h 1.076865 z m -0.729489,7.62491 v -5.14985 h -0.616593 q -0.486326,0 -0.486326,-0.37343 0,-0.36475 0.486326,-0.36475 h 1.346082 v 5.88803 z m 1.363451,0 q 0.486326,0 0.486326,0.37343 0,0.36474 -0.486326,0.36474 h -1.962675 q -0.486326,0 -0.486326,-0.36474 0,-0.37343 0.486326,-0.37343 z"
         style="font-style:normal;font-variant:normal;font-weight:bold;font-stretch:normal;font-family:'Estrangelo Antioch';-inkscape-font-specification:'Estrangelo Antioch Bold';fill:#5e5e5e;fill-opacity:1;stroke-width:0.44464126px"
         id="path918" />
      <path
         d="m 49.437118,113.12556 q 0,1.09423 -1.102919,1.67609 -0.885809,0.46896 -2.075572,0.46896 -1.563191,0 -2.553213,-0.79028 0,0.53843 -0.330007,0.53843 -0.330007,0 -0.330007,-0.4429 v -1.35477 q 0,-0.44291 0.330007,-0.44291 0.251847,0 0.338691,0.37343 0.121582,0.52107 0.173688,0.59054 0.625277,0.87713 2.344788,0.87713 0.894493,0 1.606614,-0.30396 0.937915,-0.40816 0.937915,-1.18976 0,-0.9466 -1.398188,-1.26792 -1.30266,-0.23448 -2.596635,-0.46896 -1.398189,-0.39948 -1.398189,-1.55451 0,-0.92923 0.990022,-1.44161 0.79028,-0.39948 1.823724,-0.39948 1.36345,0 2.214522,0.6687 0,-0.43422 0.330007,-0.43422 0.338691,0 0.338691,0.4429 v 1.12898 q 0,0.4429 -0.338691,0.4429 -0.234479,0 -0.330007,-0.3908 -0.130266,-0.50369 -0.486327,-0.75554 -0.625277,-0.43422 -1.702142,-0.43422 -0.72949,0 -1.346082,0.24316 -0.825018,0.33001 -0.825018,0.95529 0,0.69475 1.024759,0.9466 l 2.136362,0.34737 q 1.337398,0.26053 1.849777,0.92055 0.37343,0.48632 0.37343,1.05081 z"
         style="font-style:normal;font-variant:normal;font-weight:bold;font-stretch:normal;font-family:'Estrangelo Antioch';-inkscape-font-specification:'Estrangelo Antioch Bold';fill:#5e5e5e;fill-opacity:1;stroke-width:0.44464126px"
         id="path920" />
      <path
         d="m 59.78892,106.63831 h -1.076866 v -1.88451 h 1.076866 z m -0.72949,7.62491 v -5.14985 h -0.616592 q -0.486326,0 -0.486326,-0.37343 0,-0.36475 0.486326,-0.36475 h 1.346082 v 5.88803 z m 1.363451,0 q 0.486327,0 0.486327,0.37343 0,0.36474 -0.486327,0.36474 h -1.962674 q -0.486327,0 -0.486327,-0.36474 0,-0.37343 0.486327,-0.37343 z"
         style="font-style:normal;font-variant:normal;font-weight:bold;font-stretch:normal;font-family:'Estrangelo Antioch';-inkscape-font-specification:'Estrangelo Antioch Bold';fill:#5e5e5e;fill-opacity:1;stroke-width:0.44464126px"
         id="path922" />
      <path
         d="m 76.454285,109.29574 q 0,0.38211 -0.382114,0.38211 -0.130266,0 -0.547117,-0.37343 -0.416851,-0.38211 -0.798965,-0.38211 -0.703436,0 -1.87583,0.87713 -0.442904,0.33 -1.606614,1.37213 v 3.10033 q 0.72949,0 0.660014,-0.009 0.442905,0.0521 0.442905,0.37343 0,0.36474 -0.486327,0.36474 h -1.95399 q -0.49501,0 -0.49501,-0.36474 0,-0.32133 0.442904,-0.37343 -0.06947,0.009 0.660014,0.009 v -5.15853 q -0.720805,0 -0.668698,0.009 -0.43422,-0.0521 -0.43422,-0.38211 0,-0.36475 0.486326,-0.36475 h 1.346082 v 1.8411 q 1.050812,-0.9466 1.571876,-1.30266 1.042128,-0.72081 1.867146,-0.72081 0.442905,0 1.076866,0.34738 0.694752,0.38211 0.694752,0.75554 z"
         style="font-style:normal;font-variant:normal;font-weight:bold;font-stretch:normal;font-family:'Estrangelo Antioch';-inkscape-font-specification:'Estrangelo Antioch Bold';fill:#5e5e5e;fill-opacity:1;stroke-width:0.44464126px"
         id="path924" />
      <path
         d="m 86.423974,114.62796 q 0,0.36475 -0.486326,0.36475 h -1.276607 v -0.9466 q -1.432926,1.20713 -3.065593,1.20713 -1.033443,0 -1.728195,-0.5037 -0.790281,-0.56448 -0.790281,-1.56319 0,-1.2245 1.181079,-1.86714 0.946599,-0.52107 2.266628,-0.52107 0.937915,0 2.136362,0.24316 v -1.06818 q 0,-0.70343 -0.694752,-1.05949 -0.538433,-0.2779 -1.311344,-0.2779 -0.495011,0 -1.424242,0.26921 -0.920546,0.26053 -1.050812,0.26053 -0.303954,0 -0.303954,-0.33 0,-0.12158 0.07816,-0.21711 0.147634,-0.17369 1.276606,-0.41685 1.050813,-0.23448 1.458979,-0.23448 1.007391,0 1.762934,0.48632 0.877124,0.55581 0.877124,1.51977 l -0.0087,4.28141 h 0.616593 q 0.486326,0 0.486326,0.37343 z m -1.762933,-1.45898 v -1.45029 q -0.894493,-0.26053 -2.066887,-0.26053 -1.016075,0 -1.815039,0.36474 -1.042128,0.46896 -1.042128,1.36345 0,0.71212 0.581854,1.08555 0.495011,0.32132 1.250554,0.32132 1.606614,0 3.091646,-1.42424 z"
         style="font-style:normal;font-variant:normal;font-weight:bold;font-stretch:normal;font-family:'Estrangelo Antioch';-inkscape-font-specification:'Estrangelo Antioch Bold';fill:#5e5e5e;fill-opacity:1;stroke-width:0.44464126px"
         id="path926" />
      <path
         d="m 97.548688,114.62796 q 0,0.36475 -0.486327,0.36475 h -1.346082 v -1.15503 q -1.120287,1.54582 -3.013486,1.54582 -1.528455,0 -2.60532,-1.05949 -1.068181,-1.0595 -1.068181,-2.58795 0,-1.51977 1.068181,-2.57927 1.076865,-1.0595 2.60532,-1.0595 1.884515,0 3.004802,1.53714 l 0.0087,-4.75036 h -0.616592 q -0.486326,0 -0.486326,-0.37343 0,-0.36475 0.486326,-0.36475 l 1.346082,0.009 v 10.09995 h 0.616592 q 0.486327,0 0.486327,0.37343 z m -1.823724,-2.8919 q 0,-1.24187 -0.885809,-2.11031 -0.885809,-0.86844 -2.127678,-0.86844 -1.250553,0 -2.136362,0.86844 -0.885809,0.85975 -0.885809,2.11031 0,1.25055 0.877125,2.11899 0.885808,0.85976 2.145046,0.85976 1.250554,0 2.127678,-0.85976 0.885809,-0.86844 0.885809,-2.11899 z"
         style="font-style:normal;font-variant:normal;font-weight:bold;font-stretch:normal;font-family:'Estrangelo Antioch';-inkscape-font-specification:'Estrangelo Antioch Bold';fill:#5e5e5e;fill-opacity:1;stroke-width:0.44464126px"
         id="path928" />
      <path
         d="m 101.54351,106.63831 h -1.07686 v -1.88451 h 1.07686 z m -0.72949,7.62491 v -5.14985 h -0.61659 q -0.486325,0 -0.486325,-0.37343 0,-0.36475 0.486325,-0.36475 h 1.34608 v 5.88803 z m 1.36345,0 q 0.48633,0 0.48633,0.37343 0,0.36474 -0.48633,0.36474 h -1.96267 q -0.486327,0 -0.486327,-0.36474 0,-0.37343 0.486327,-0.37343 z"
         style="font-style:normal;font-variant:normal;font-weight:bold;font-stretch:normal;font-family:'Estrangelo Antioch';-inkscape-font-specification:'Estrangelo Antioch Bold';fill:#5e5e5e;fill-opacity:1;stroke-width:0.44464126px"
         id="path930" />
      <path
         d="m 112.61612,111.63184 q 0,1.51977 -1.07687,2.57927 -1.06818,1.0595 -2.59663,1.0595 -1.52845,0 -2.60532,-1.05082 -1.07687,-1.05949 -1.07687,-2.58795 0,-1.52845 1.07687,-2.58795 1.07687,-1.05949 2.60532,-1.05949 1.52845,0 2.59663,1.05949 1.07687,1.0595 1.07687,2.58795 z m -0.66001,0 q 0,-1.25055 -0.88581,-2.11031 -0.87713,-0.86844 -2.13636,-0.86844 -1.25056,0 -2.13637,0.86844 -0.87712,0.85976 -0.87712,2.11031 0,1.24187 0.88581,2.11031 0.88581,0.86844 2.12768,0.86844 1.25055,0 2.13636,-0.85975 0.88581,-0.86844 0.88581,-2.119 z"
         style="font-style:normal;font-variant:normal;font-weight:bold;font-stretch:normal;font-family:'Estrangelo Antioch';-inkscape-font-specification:'Estrangelo Antioch Bold';fill:#5e5e5e;fill-opacity:1;stroke-width:0.44464126px"
         id="path932" />
      <path
         d="m 123.75821,114.63665 q 0,0.36474 -0.48633,0.36474 h -1.96267 q -0.48633,0 -0.48633,-0.36474 0,-0.37343 0.48633,-0.37343 h 0.61659 l -0.009,-3.56929 q 0,-0.85107 -0.62528,-1.36345 -0.58185,-0.47764 -1.45029,-0.47764 -0.88581,0 -1.57188,0.51238 -0.39948,0.29526 -1.18976,1.2245 l 0.009,3.6735 h 0.61659 q 0.48633,0 0.48633,0.37343 0,0.36474 -0.48633,0.36474 h -1.96267 q -0.48633,0 -0.48633,-0.36474 0,-0.37343 0.48633,-0.37343 h 0.61659 l -0.009,-5.14985 h -0.61659 q -0.48633,0 -0.48633,-0.37343 0,-0.36475 0.48633,-0.36475 h 1.34608 v 1.10292 q 1.34608,-1.36345 2.77032,-1.36345 1.1116,0 1.92794,0.66002 0.86844,0.70343 0.86844,1.79767 l 0.009,3.69087 h 0.61659 q 0.48633,0 0.48633,0.37343 z"
         style="font-style:normal;font-variant:normal;font-weight:bold;font-stretch:normal;font-family:'Estrangelo Antioch';-inkscape-font-specification:'Estrangelo Antioch Bold';fill:#5e5e5e;fill-opacity:1;stroke-width:0.44464126px"
         id="path934" />
      <path
         d="m 128.22199,106.63831 h -1.07686 v -1.88451 h 1.07686 z m -0.72948,7.62491 v -5.14985 h -0.6166 q -0.48632,0 -0.48632,-0.37343 0,-0.36475 0.48632,-0.36475 h 1.34608 v 5.88803 z m 1.36345,0 q 0.48632,0 0.48632,0.37343 0,0.36474 -0.48632,0.36474 h -1.96268 q -0.48632,0 -0.48632,-0.36474 0,-0.37343 0.48632,-0.37343 z"
         style="font-style:normal;font-variant:normal;font-weight:bold;font-stretch:normal;font-family:'Estrangelo Antioch';-inkscape-font-specification:'Estrangelo Antioch Bold';fill:#5e5e5e;fill-opacity:1;stroke-width:0.44464126px"
         id="path936" />
      <path
         d="m 139.21644,113.61189 q 0,0.33869 -0.79896,0.85975 -1.26792,0.8337 -2.8398,0.8337 -1.58925,0 -2.614,-0.9987 -1.02476,-1.00739 -1.02476,-2.58795 0,-1.59793 1.04212,-2.64006 1.04213,-1.05081 2.64006,-1.05081 1.51109,0 2.54453,0.90318 v -0.28659 q 0.009,-0.38211 0.32132,-0.38211 0.33869,0 0.33869,0.4429 v 1.49372 q 0,0.4429 -0.33869,0.4429 -0.13026,0 -0.21711,-0.0868 l -0.15632,-0.51238 q -0.13026,-0.44291 -0.68606,-0.85107 -0.67739,-0.49501 -1.8411,-0.49501 -1.33739,0 -2.16241,0.84238 -0.82502,0.83371 -0.82502,2.1711 0,1.31135 0.84239,2.12768 0.85107,0.81633 2.16241,0.81633 1.65004,0 3.0048,-1.19844 0.18238,-0.15632 0.28659,-0.15632 0.32132,0 0.32132,0.31264 z"
         style="font-style:normal;font-variant:normal;font-weight:bold;font-stretch:normal;font-family:'Estrangelo Antioch';-inkscape-font-specification:'Estrangelo Antioch Bold';fill:#5e5e5e;fill-opacity:1;stroke-width:0.44464126px"
         id="path938" />
      <path
         d="m 148.8127,114.62796 q 0,0.36475 -0.48633,0.36475 h -1.2766 v -0.9466 q -1.43293,1.20713 -3.0656,1.20713 -1.03344,0 -1.72819,-0.5037 -0.79028,-0.56448 -0.79028,-1.56319 0,-1.2245 1.18108,-1.86714 0.9466,-0.52107 2.26662,-0.52107 0.93792,0 2.13637,0.24316 v -1.06818 q 0,-0.70343 -0.69476,-1.05949 -0.53843,-0.2779 -1.31134,-0.2779 -0.49501,0 -1.42424,0.26921 -0.92055,0.26053 -1.05081,0.26053 -0.30396,0 -0.30396,-0.33 0,-0.12158 0.0782,-0.21711 0.14764,-0.17369 1.27661,-0.41685 1.05081,-0.23448 1.45898,-0.23448 1.00739,0 1.76293,0.48632 0.87713,0.55581 0.87713,1.51977 l -0.009,4.28141 h 0.61659 q 0.48633,0 0.48633,0.37343 z m -1.76293,-1.45898 v -1.45029 q -0.8945,-0.26053 -2.06689,-0.26053 -1.01608,0 -1.81504,0.36474 -1.04213,0.46896 -1.04213,1.36345 0,0.71212 0.58186,1.08555 0.49501,0.32132 1.25055,0.32132 1.60661,0 3.09165,-1.42424 z"
         style="font-style:normal;font-variant:normal;font-weight:bold;font-stretch:normal;font-family:'Estrangelo Antioch';-inkscape-font-specification:'Estrangelo Antioch Bold';fill:#5e5e5e;fill-opacity:1;stroke-width:0.44464126px"
         id="path940" />
    </g>
    <g
       aria-label="za tahografe"
       style="font-style:normal;font-variant:normal;font-weight:bold;font-stretch:normal;font-size:18.4648838px;line-height:11.54055214px;font-family:'Amatic SC';-inkscape-font-specification:'Amatic SC Bold';letter-spacing:0px;word-spacing:0px;fill:#5e5e5e;fill-opacity:1;stroke:none;stroke-width:0.46162206px;stroke-linecap:butt;stroke-linejoin:miter;stroke-opacity:1"
       id="text14564">
      <path
         d="m 82.93252,130.46706 h -6.437465 v -0.67621 l 5.184233,-5.42766 h -4.219515 q 0,0.76636 0.009,0.68522 -0.0541,0.45982 -0.396706,0.45982 -0.378674,0 -0.378674,-0.47786 v -1.43355 h 6.05879 v 0.67621 l -5.211281,5.43668 4.625237,-0.009 q 0,-0.76636 -0.009,-0.68522 0.0541,-0.45982 0.396706,-0.45982 0.378675,0 0.378675,0.47785 z"
         style="font-style:normal;font-variant:normal;font-weight:bold;font-stretch:normal;font-family:'Estrangelo Antioch';-inkscape-font-specification:'Estrangelo Antioch Bold';fill:#5e5e5e;fill-opacity:1;stroke-width:0.46162206px"
         id="path887" />
      <path
         d="m 93.291969,130.08838 q 0,0.37868 -0.504899,0.37868 h -1.325361 v -0.98275 q -1.487649,1.25323 -3.182668,1.25323 -1.07291,0 -1.794195,-0.52293 -0.820461,-0.58605 -0.820461,-1.62289 0,-1.27127 1.226184,-1.93846 0.98275,-0.54096 2.35319,-0.54096 0.973734,0 2.21795,0.25245 v -1.10897 q 0,-0.7303 -0.721284,-1.09996 -0.558996,-0.28852 -1.361425,-0.28852 -0.513915,0 -1.478633,0.2795 -0.955702,0.27048 -1.090943,0.27048 -0.315562,0 -0.315562,-0.34261 0,-0.12622 0.08115,-0.2254 0.153273,-0.18032 1.32536,-0.43277 1.090943,-0.24343 1.514697,-0.24343 1.045863,0 1.83026,0.5049 0.910622,0.57702 0.910622,1.57781 l -0.009,4.44491 h 0.64014 q 0.504899,0 0.504899,0.38769 z m -1.83026,-1.5147 V 127.068 q -0.928654,-0.27048 -2.145821,-0.27048 -1.054879,0 -1.884356,0.37868 -1.081927,0.48686 -1.081927,1.41552 0,0.73931 0.604076,1.127 0.513915,0.3336 1.298312,0.3336 1.667971,0 3.209716,-1.47864 z"
         style="font-style:normal;font-variant:normal;font-weight:bold;font-stretch:normal;font-family:'Estrangelo Antioch';-inkscape-font-specification:'Estrangelo Antioch Bold';fill:#5e5e5e;fill-opacity:1;stroke-width:0.46162206px"
         id="path889" />
      <path
         d="m 110.00774,129.52037 q 0,0.44179 -1.15406,0.89259 -0.89259,0.35163 -1.686,0.35163 -1.12701,0 -1.88435,-0.57703 -0.82948,-0.63113 -0.82948,-1.72207 l -0.009,-4.1023 h -1.84829 q -0.5049,0 -0.5049,-0.38769 0,-0.37868 0.5049,-0.37868 h 1.84829 l 0.009,-3.17365 q 0,-0.5049 0.37867,-0.5049 0.38769,0 0.38769,0.5049 l -0.009,3.17365 h 3.66052 q 0.5049,0 0.5049,0.38769 0,0.37868 -0.5049,0.37868 h -3.66052 l 0.009,4.1023 q 0,0.73932 0.59506,1.16307 0.53195,0.37868 1.29831,0.37868 0.3336,0 1.20816,-0.23442 0.18933,-0.0451 0.74833,-0.35163 0.52293,-0.27949 0.57703,-0.27949 0.36064,0 0.36064,0.37867 z"
         style="font-style:normal;font-variant:normal;font-weight:bold;font-stretch:normal;font-family:'Estrangelo Antioch';-inkscape-font-specification:'Estrangelo Antioch Bold';fill:#5e5e5e;fill-opacity:1;stroke-width:0.46162206px"
         id="path891" />
      <path
         d="m 119.69098,130.08838 q 0,0.37868 -0.5049,0.37868 h -1.32536 v -0.98275 q -1.48765,1.25323 -3.18267,1.25323 -1.07291,0 -1.79419,-0.52293 -0.82046,-0.58605 -0.82046,-1.62289 0,-1.27127 1.22618,-1.93846 0.98275,-0.54096 2.35319,-0.54096 0.97374,0 2.21795,0.25245 v -1.10897 q 0,-0.7303 -0.72128,-1.09996 -0.559,-0.28852 -1.36143,-0.28852 -0.51391,0 -1.47863,0.2795 -0.9557,0.27048 -1.09094,0.27048 -0.31557,0 -0.31557,-0.34261 0,-0.12622 0.0811,-0.2254 0.15327,-0.18032 1.32536,-0.43277 1.09094,-0.24343 1.5147,-0.24343 1.04586,0 1.83026,0.5049 0.91062,0.57702 0.91062,1.57781 l -0.009,4.44491 h 0.64014 q 0.5049,0 0.5049,0.38769 z m -1.83026,-1.5147 V 127.068 q -0.92865,-0.27048 -2.14582,-0.27048 -1.05488,0 -1.88436,0.37868 -1.08192,0.48686 -1.08192,1.41552 0,0.73931 0.60407,1.127 0.51392,0.3336 1.29832,0.3336 1.66797,0 3.20971,-1.47864 z"
         style="font-style:normal;font-variant:normal;font-weight:bold;font-stretch:normal;font-family:'Estrangelo Antioch';-inkscape-font-specification:'Estrangelo Antioch Bold';fill:#5e5e5e;fill-opacity:1;stroke-width:0.46162206px"
         id="path893" />
      <path
         d="m 131.27661,130.0974 q 0,0.37867 -0.50489,0.37867 h -2.03763 q -0.5049,0 -0.5049,-0.37867 0,-0.38769 0.5049,-0.38769 h 0.64014 l -0.009,-3.47118 q 0,-0.91964 -0.6762,-1.44257 -0.6131,-0.47785 -1.55978,-0.47785 -0.87456,0 -1.59584,0.54096 -0.34261,0.26146 -1.21717,1.22618 v 3.62446 h 0.64014 q 0.5049,0 0.5049,0.38769 0,0.37867 -0.5049,0.37867 h -2.03763 q -0.5049,0 -0.5049,-0.37867 0,-0.38769 0.5049,-0.38769 h 0.64014 v -9.79144 h -0.64014 q -0.5049,0 -0.5049,-0.38769 0,-0.37867 0.5049,-0.37867 h 1.39749 v 5.83338 q 1.30733,-1.42453 2.8671,-1.42453 1.20816,0 2.04665,0.69423 0.90161,0.73932 0.90161,1.92944 v 3.52528 h 0.64014 q 0.50489,0 0.50489,0.38769 z"
         style="font-style:normal;font-variant:normal;font-weight:bold;font-stretch:normal;font-family:'Estrangelo Antioch';-inkscape-font-specification:'Estrangelo Antioch Bold';fill:#5e5e5e;fill-opacity:1;stroke-width:0.46162206px"
         id="path895" />
      <path
         d="m 141.61803,126.97784 q 0,1.57781 -1.11799,2.67777 -1.10897,1.09996 -2.6958,1.09996 -1.58682,0 -2.70482,-1.09094 -1.11799,-1.09996 -1.11799,-2.68679 0,-1.58682 1.11799,-2.68678 1.118,-1.09996 2.70482,-1.09996 1.58683,0 2.6958,1.09996 1.11799,1.09996 1.11799,2.68678 z m -0.68522,0 q 0,-1.29831 -0.91964,-2.1909 -0.91062,-0.90161 -2.21795,-0.90161 -1.29831,0 -2.21795,0.90161 -0.91062,0.89259 -0.91062,2.1909 0,1.2893 0.91964,2.1909 0.91964,0.90161 2.20893,0.90161 1.29832,0 2.21795,-0.89259 0.91964,-0.90161 0.91964,-2.19992 z"
         style="font-style:normal;font-variant:normal;font-weight:bold;font-stretch:normal;font-family:'Estrangelo Antioch';-inkscape-font-specification:'Estrangelo Antioch Bold';fill:#5e5e5e;fill-opacity:1;stroke-width:0.46162206px"
         id="path897" />
      <path
         d="m 153.14055,123.9755 q 0,0.38769 -0.5049,0.38769 h -0.64014 l 0.009,7.5284 q 0,1.22619 -0.91964,2.09173 -0.91964,0.86554 -2.15484,0.86554 h -2.14582 q -0.5049,0 -0.5049,-0.37867 0,-0.3877 0.5049,-0.3877 l 2.17287,0.009 q 1.38847,0.009 2.09172,-1.34339 0.19836,-0.36966 0.19836,-0.96472 l 0.018,-2.60564 q -1.17209,1.57781 -3.11054,1.57781 -1.58683,0 -2.70482,-1.09094 -1.11799,-1.09996 -1.11799,-2.68679 0,-1.58682 1.11799,-2.68678 1.11799,-1.09996 2.70482,-1.09996 1.9114,0 3.08349,1.55978 v -1.15406 h 1.39749 q 0.5049,0 0.5049,0.37868 z m -1.85731,3.00234 q 0,-1.29831 -0.91964,-2.1909 -0.91062,-0.90161 -2.21795,-0.90161 -1.29831,0 -2.21795,0.90161 -0.91062,0.89259 -0.91062,2.1909 0,1.2893 0.91964,2.1909 0.91964,0.90161 2.20893,0.90161 1.29832,0 2.21795,-0.89259 0.91964,-0.90161 0.91964,-2.19992 z"
         style="font-style:normal;font-variant:normal;font-weight:bold;font-stretch:normal;font-family:'Estrangelo Antioch';-inkscape-font-specification:'Estrangelo Antioch Bold';fill:#5e5e5e;fill-opacity:1;stroke-width:0.46162206px"
         id="path899" />
      <path
         d="m 163.36476,124.55252 q 0,0.39671 -0.3967,0.39671 -0.13524,0 -0.56802,-0.38769 -0.43277,-0.39671 -0.82947,-0.39671 -0.7303,0 -1.94747,0.91062 -0.45982,0.34261 -1.66797,1.42454 v 3.21873 q 0.75735,0 0.68522,-0.009 0.45982,0.0541 0.45982,0.38769 0,0.37867 -0.5049,0.37867 h -2.02861 q -0.51392,0 -0.51392,-0.37867 0,-0.3336 0.45982,-0.38769 -0.0721,0.009 0.68522,0.009 v -5.35553 q -0.74833,0 -0.69424,0.009 -0.4508,-0.0541 -0.4508,-0.3967 0,-0.37868 0.5049,-0.37868 h 1.39749 v 1.91141 q 1.09094,-0.98275 1.63191,-1.35241 1.08192,-0.74834 1.93845,-0.74834 0.45982,0 1.11799,0.36065 0.72128,0.3967 0.72128,0.78439 z"
         style="font-style:normal;font-variant:normal;font-weight:bold;font-stretch:normal;font-family:'Estrangelo Antioch';-inkscape-font-specification:'Estrangelo Antioch Bold';fill:#5e5e5e;fill-opacity:1;stroke-width:0.46162206px"
         id="path901" />
      <path
         d="m 173.7152,130.08838 q 0,0.37868 -0.5049,0.37868 h -1.32536 v -0.98275 q -1.48765,1.25323 -3.18267,1.25323 -1.07291,0 -1.7942,-0.52293 -0.82046,-0.58605 -0.82046,-1.62289 0,-1.27127 1.22619,-1.93846 0.98275,-0.54096 2.35319,-0.54096 0.97373,0 2.21795,0.25245 v -1.10897 q 0,-0.7303 -0.72129,-1.09996 -0.55899,-0.28852 -1.36142,-0.28852 -0.51392,0 -1.47863,0.2795 -0.95571,0.27048 -1.09095,0.27048 -0.31556,0 -0.31556,-0.34261 0,-0.12622 0.0811,-0.2254 0.15328,-0.18032 1.32537,-0.43277 1.09094,-0.24343 1.51469,-0.24343 1.04587,0 1.83026,0.5049 0.91062,0.57702 0.91062,1.57781 l -0.009,4.44491 h 0.64014 q 0.5049,0 0.5049,0.38769 z m -1.83026,-1.5147 V 127.068 q -0.92866,-0.27048 -2.14582,-0.27048 -1.05488,0 -1.88436,0.37868 -1.08193,0.48686 -1.08193,1.41552 0,0.73931 0.60408,1.127 0.51391,0.3336 1.29831,0.3336 1.66797,0 3.20972,-1.47864 z"
         style="font-style:normal;font-variant:normal;font-weight:bold;font-stretch:normal;font-family:'Estrangelo Antioch';-inkscape-font-specification:'Estrangelo Antioch Bold';fill:#5e5e5e;fill-opacity:1;stroke-width:0.46162206px"
         id="path903" />
      <path
         d="m 184.36316,119.87319 q 0,0.36966 -0.39671,0.36966 -0.37867,0 -1.13602,-0.16229 -0.75735,-0.17131 -1.14504,-0.17131 -1.26225,0 -1.79419,0.46884 -0.45081,0.38769 -0.53195,1.28028 0,0.0541 -0.018,1.93845 h 1.64092 q 0.5049,0 0.5049,0.37868 0,0.38769 -0.5049,0.38769 h -1.64092 l 0.009,5.34652 h 0.64014 q 0.5049,0 0.5049,0.38769 0,0.37867 -0.5049,0.37867 h -2.03763 q -0.5049,0 -0.5049,-0.37867 0,-0.38769 0.5049,-0.38769 h 0.64014 l -0.018,-5.34652 h -1.64092 q -0.5049,0 -0.5049,-0.38769 0,-0.37868 0.5049,-0.37868 h 1.64092 l 0.018,-2.08271 q 0.009,-1.20815 1.02783,-1.83927 0.85653,-0.54097 2.14583,-0.54097 0.30654,0 1.31634,0.17131 1.08193,0.18934 1.1811,0.30654 0.0992,0.1082 0.0992,0.26147 z"
         style="font-style:normal;font-variant:normal;font-weight:bold;font-stretch:normal;font-family:'Estrangelo Antioch';-inkscape-font-specification:'Estrangelo Antioch Bold';fill:#5e5e5e;fill-opacity:1;stroke-width:0.46162206px"
         id="path905" />
      <path
         d="m 194.74064,129.34005 q 0,0.49588 -1.5147,1.03685 -1.00078,0.35162 -2.04664,0.35162 -1.71305,0 -2.91219,-1.11799 -1.19913,-1.11799 -1.19913,-2.82202 0,-1.55978 1.14504,-2.60565 1.11799,-1.01881 2.68678,-1.01881 1.71305,0 2.77695,1.10898 1.06389,1.10897 1.04586,2.82202 h -6.9604 q 0.18032,1.35241 1.10898,2.15484 0.93767,0.79341 2.30811,0.79341 1.686,0 2.96628,-0.91964 0.17131,-0.12622 0.27048,-0.12622 0.32458,0 0.32458,0.34261 z m -0.70325,-2.93022 q -0.20737,-1.15405 -1.08193,-1.84829 -0.87456,-0.70325 -2.05566,-0.70325 -1.19012,0 -2.05566,0.69423 -0.86554,0.69424 -1.07291,1.85731 z"
         style="font-style:normal;font-variant:normal;font-weight:bold;font-stretch:normal;font-family:'Estrangelo Antioch';-inkscape-font-specification:'Estrangelo Antioch Bold';fill:#5e5e5e;fill-opacity:1;stroke-width:0.46162206px"
         id="path907" />
    </g>
    <g
       id="g14578"
       transform="matrix(0.94274029,0,0,1,-31.434699,5.350763)">
      <rect
         y="198.44893"
         x="20.471327"
         height="1.3363476"
         width="32.874149"
         id="rect14566"
         style="opacity:1;fill:#8a8a8a;fill-opacity:1;stroke:none;stroke-width:0.26458332;stroke-opacity:1;paint-order:normal" />
      <rect
         style="opacity:1;fill:#8a8a8a;fill-opacity:1;stroke:none;stroke-width:0.48786753;stroke-opacity:1;paint-order:normal"
         id="rect14568"
         width="32.874149"
         height="4.543582"
         x="53.345478"
         y="195.2417" />
      <rect
         y="191.7672"
         x="85.952362"
         height="8.0180855"
         width="32.874149"
         id="rect14570"
         style="opacity:1;fill:#8a8a8a;fill-opacity:1;stroke:none;stroke-width:0.64809412;stroke-opacity:1;paint-order:normal" />
      <rect
         style="opacity:1;fill:#8a8a8a;fill-opacity:1;stroke:none;stroke-width:0.76683533;stroke-opacity:1;paint-order:normal"
         id="rect14572"
         width="32.874149"
         height="11.225321"
         x="118.29198"
         y="188.55997" />
    </g>
    <g
       id="g14606"
       transform="matrix(1.0341618,0,0,1,0.3689208,2.1166667)">
      <rect
         style="opacity:1;fill:#5e5e5e;fill-opacity:1;stroke:none;stroke-width:0.26458332;stroke-opacity:1;paint-order:normal"
         id="rect14582"
         width="21.381561"
         height="1.3363476"
         x="-10.79921"
         y="181.34369" />
      <rect
         y="181.34369"
         x="15.12995"
         height="1.3363476"
         width="21.381561"
         id="rect14584"
         style="opacity:1;fill:#5e5e5e;fill-opacity:1;stroke:none;stroke-width:0.26458332;stroke-opacity:1;paint-order:normal" />
      <rect
         y="181.34369"
         x="40.529972"
         height="1.3363476"
         width="21.381561"
         id="rect14586"
         style="opacity:1;fill:#5e5e5e;fill-opacity:1;stroke:none;stroke-width:0.26458332;stroke-opacity:1;paint-order:normal" />
      <rect
         style="opacity:1;fill:#5e5e5e;fill-opacity:1;stroke:none;stroke-width:0.26458332;stroke-opacity:1;paint-order:normal"
         id="rect14588"
         width="21.381561"
         height="1.3363476"
         x="66.45916"
         y="181.34369" />
      <rect
         y="181.34369"
         x="93.975853"
         height="1.3363476"
         width="21.381561"
         id="rect14590"
         style="opacity:1;fill:#5e5e5e;fill-opacity:1;stroke:none;stroke-width:0.26458332;stroke-opacity:1;paint-order:normal" />
      <rect
         style="opacity:1;fill:#5e5e5e;fill-opacity:1;stroke:none;stroke-width:0.26458332;stroke-opacity:1;paint-order:normal"
         id="rect14592"
         width="21.381561"
         height="1.3363476"
         x="119.90501"
         y="181.34369" />
      <rect
         style="opacity:1;fill:#5e5e5e;fill-opacity:1;stroke:none;stroke-width:0.26458332;stroke-opacity:1;paint-order:normal"
         id="rect14594"
         width="21.381561"
         height="1.3363476"
         x="145.30478"
         y="181.34369" />
      <rect
         y="181.34369"
         x="171.2336"
         height="1.3363476"
         width="21.381561"
         id="rect14596"
         style="opacity:1;fill:#5e5e5e;fill-opacity:1;stroke:none;stroke-width:0.26458332;stroke-opacity:1;paint-order:normal" />
    </g>
    <g
       id="g14624"
       transform="matrix(1.0341618,0,0,1,0.3689208,-84.137547)">
      <rect
         y="181.34369"
         x="-10.79921"
         height="1.3363476"
         width="21.381561"
         id="rect14608"
         style="opacity:1;fill:#5e5e5e;fill-opacity:1;stroke:none;stroke-width:0.26458332;stroke-opacity:1;paint-order:normal" />
      <rect
         style="opacity:1;fill:#5e5e5e;fill-opacity:1;stroke:none;stroke-width:0.26458332;stroke-opacity:1;paint-order:normal"
         id="rect14610"
         width="21.381561"
         height="1.3363476"
         x="15.12995"
         y="181.34369" />
      <rect
         style="opacity:1;fill:#5e5e5e;fill-opacity:1;stroke:none;stroke-width:0.26458332;stroke-opacity:1;paint-order:normal"
         id="rect14612"
         width="21.381561"
         height="1.3363476"
         x="40.529972"
         y="181.34369" />
      <rect
         y="181.34369"
         x="66.45916"
         height="1.3363476"
         width="21.381561"
         id="rect14614"
         style="opacity:1;fill:#5e5e5e;fill-opacity:1;stroke:none;stroke-width:0.26458332;stroke-opacity:1;paint-order:normal" />
      <rect
         style="opacity:1;fill:#5e5e5e;fill-opacity:1;stroke:none;stroke-width:0.26458332;stroke-opacity:1;paint-order:normal"
         id="rect14616"
         width="21.381561"
         height="1.3363476"
         x="93.975853"
         y="181.34369" />
      <rect
         y="181.34369"
         x="119.90501"
         height="1.3363476"
         width="21.381561"
         id="rect14618"
         style="opacity:1;fill:#5e5e5e;fill-opacity:1;stroke:none;stroke-width:0.26458332;stroke-opacity:1;paint-order:normal" />
      <rect
         y="181.34369"
         x="145.30478"
         height="1.3363476"
         width="21.381561"
         id="rect14620"
         style="opacity:1;fill:#5e5e5e;fill-opacity:1;stroke:none;stroke-width:0.26458332;stroke-opacity:1;paint-order:normal" />
      <rect
         style="opacity:1;fill:#5e5e5e;fill-opacity:1;stroke:none;stroke-width:0.26458332;stroke-opacity:1;paint-order:normal"
         id="rect14622"
         width="21.381561"
         height="1.3363476"
         x="171.2336"
         y="181.34369" />
    </g>
    <g
       aria-label="Leskovac"
       style="font-style:normal;font-variant:normal;font-weight:bold;font-stretch:normal;font-size:18.4648838px;line-height:11.54055214px;font-family:'Amatic SC';-inkscape-font-specification:'Amatic SC Bold';letter-spacing:0px;word-spacing:0px;fill:#5e5e5e;fill-opacity:1;stroke:none;stroke-width:0.46162206px;stroke-linecap:butt;stroke-linejoin:miter;stroke-opacity:1"
       id="text14628">
      <path
         d="m 124.02695,205.13774 -7.20383,0.009 q -0.5049,0 -0.5049,-0.37868 0,-0.38769 0.5049,-0.38769 h 0.64014 l 0.009,-9.03409 h -0.64014 q -0.5049,0 -0.5049,-0.38769 0,-0.37867 0.5049,-0.37867 h 2.03763 q 0.50489,0 0.50489,0.37867 0,0.38769 -0.50489,0.38769 h -0.64014 v 9.03409 h 5.03997 l -0.009,-0.64014 q -0.009,-0.5049 0.3877,-0.5049 0.37867,0 0.37867,0.5049 z"
         style="font-style:normal;font-variant:normal;font-weight:bold;font-stretch:normal;font-family:'Estrangelo Antioch';-inkscape-font-specification:'Estrangelo Antioch Bold';fill:#5e5e5e;fill-opacity:1;stroke-width:0.46162206px"
         id="path870" />
      <path
         d="m 134.41345,204.01073 q 0,0.49589 -1.5147,1.03685 -1.00078,0.35163 -2.04665,0.35163 -1.71305,0 -2.91218,-1.11799 -1.19914,-1.118 -1.19914,-2.82203 0,-1.55978 1.14504,-2.60564 1.11799,-1.01881 2.68679,-1.01881 1.71305,0 2.77694,1.10897 1.0639,1.10898 1.04586,2.82203 h -6.96039 q 0.18032,1.3524 1.10897,2.15483 0.93767,0.79342 2.30811,0.79342 1.68601,0 2.96629,-0.91964 0.1713,-0.12623 0.27048,-0.12623 0.32458,0 0.32458,0.34261 z m -0.70326,-2.93021 q -0.20736,-1.15406 -1.08192,-1.8483 -0.87456,-0.70325 -2.05566,-0.70325 -1.19012,0 -2.05566,0.69424 -0.86555,0.69423 -1.07291,1.85731 z"
         style="font-style:normal;font-variant:normal;font-weight:bold;font-stretch:normal;font-family:'Estrangelo Antioch';-inkscape-font-specification:'Estrangelo Antioch Bold';fill:#5e5e5e;fill-opacity:1;stroke-width:0.46162206px"
         id="path872" />
      <path
         d="m 143.7631,203.19929 q 0,1.13602 -1.14504,1.7401 -0.91964,0.48686 -2.15484,0.48686 -1.62289,0 -2.65072,-0.82046 0,0.559 -0.34261,0.559 -0.34261,0 -0.34261,-0.45982 v -1.4065 q 0,-0.45982 0.34261,-0.45982 0.26147,0 0.35163,0.38769 0.12622,0.54096 0.18032,0.61309 0.64915,0.91062 2.43433,0.91062 0.92866,0 1.66797,-0.31556 0.97374,-0.42376 0.97374,-1.2352 0,-0.98275 -1.45159,-1.31635 -1.35241,-0.24343 -2.6958,-0.48686 -1.45158,-0.41474 -1.45158,-1.61388 0,-0.96471 1.02783,-1.49666 0.82046,-0.41474 1.89337,-0.41474 1.41552,0 2.29909,0.69424 0,-0.45081 0.34261,-0.45081 0.35163,0 0.35163,0.45982 v 1.17209 q 0,0.45982 -0.35163,0.45982 -0.24343,0 -0.34261,-0.40572 -0.13524,-0.52294 -0.5049,-0.7844 -0.64915,-0.4508 -1.76714,-0.4508 -0.75735,0 -1.39749,0.25245 -0.85653,0.34261 -0.85653,0.99176 0,0.72129 1.0639,0.98275 l 2.21795,0.36064 q 1.38847,0.27049 1.92042,0.95571 0.38769,0.5049 0.38769,1.09094 z"
         style="font-style:normal;font-variant:normal;font-weight:bold;font-stretch:normal;font-family:'Estrangelo Antioch';-inkscape-font-specification:'Estrangelo Antioch Bold';fill:#5e5e5e;fill-opacity:1;stroke-width:0.46162206px"
         id="path874" />
      <path
         d="m 154.71761,204.76808 q 0,0.37868 -0.5049,0.37868 h -2.32615 q -0.5049,0 -0.5049,-0.37868 0,-0.38769 0.5049,-0.38769 h 0.64014 l -3.25479,-3.34495 -0.86554,0.7303 0.009,2.61465 h 0.64014 q 0.5049,0 0.5049,0.38769 0,0.37868 -0.5049,0.37868 h -2.05566 q -0.5049,0 -0.5049,-0.37868 0,-0.38769 0.5049,-0.38769 H 147.64 l 0.009,-9.79144 h -0.64014 q -0.5049,0 -0.5049,-0.38769 0,-0.37867 0.5049,-0.37867 h 1.39749 v 6.97843 l 3.21873,-2.70482 h -0.64014 q -0.5049,0 -0.5049,-0.38769 0,-0.37867 0.5049,-0.37867 h 2.44335 q 0.5049,0 0.5049,0.37867 0,0.38769 -0.5049,0.38769 h -0.64014 l -2.95727,2.4704 3.74167,3.81379 h 0.64014 q 0.5049,0 0.5049,0.38769 z"
         style="font-style:normal;font-variant:normal;font-weight:bold;font-stretch:normal;font-family:'Estrangelo Antioch';-inkscape-font-specification:'Estrangelo Antioch Bold';fill:#5e5e5e;fill-opacity:1;stroke-width:0.46162206px"
         id="path876" />
      <path
         d="m 165.06804,201.64853 q 0,1.57781 -1.11799,2.67777 -1.10897,1.09995 -2.6958,1.09995 -1.58683,0 -2.70482,-1.09094 -1.11799,-1.09996 -1.11799,-2.68678 0,-1.58683 1.11799,-2.68679 1.11799,-1.09996 2.70482,-1.09996 1.58683,0 2.6958,1.09996 1.11799,1.09996 1.11799,2.68679 z m -0.68522,0 q 0,-1.29831 -0.91964,-2.1909 -0.91062,-0.90161 -2.21795,-0.90161 -1.29831,0 -2.21795,0.90161 -0.91062,0.89259 -0.91062,2.1909 0,1.28929 0.91964,2.1909 0.91964,0.9016 2.20893,0.9016 1.29832,0 2.21795,-0.89258 0.91964,-0.90161 0.91964,-2.19992 z"
         style="font-style:normal;font-variant:normal;font-weight:bold;font-stretch:normal;font-family:'Estrangelo Antioch';-inkscape-font-specification:'Estrangelo Antioch Bold';fill:#5e5e5e;fill-opacity:1;stroke-width:0.46162206px"
         id="path878" />
      <path
         d="m 177.0594,198.3757 q 0.11721,0.10819 0.11721,0.27048 0,0.34261 -0.45982,0.39671 0.0811,-0.009 -0.68522,-0.009 z m -6.29321,0 q 0.11721,0.10819 0.11721,0.27048 0,0.34261 -0.45982,0.39671 0.0811,-0.009 -0.68522,-0.009 z m 6.41042,0.27048 q 0,0.34261 -0.45982,0.39671 0.0811,-0.009 -0.68522,-0.009 l -2.89416,6.10387 h -1.28028 l -2.93022,-6.10387 q -0.76636,0 -0.68522,0.009 -0.45982,-0.0541 -0.45982,-0.39671 0,-0.37867 0.47786,-0.37867 h 2.14582 q 0.47785,0 0.47785,0.37867 0,0.34261 -0.45982,0.39671 0.0811,-0.009 -0.68522,-0.009 l 2.59662,5.34652 h 0.3336 l 2.54253,-5.34652 q -0.76637,0 -0.68522,0.009 -0.45982,-0.0541 -0.45982,-0.39671 0,-0.37867 0.47785,-0.37867 h 2.15483 q 0.47786,0 0.47786,0.37867 z"
         style="font-style:normal;font-variant:normal;font-weight:bold;font-stretch:normal;font-family:'Estrangelo Antioch';-inkscape-font-specification:'Estrangelo Antioch Bold';fill:#5e5e5e;fill-opacity:1;stroke-width:0.46162206px"
         id="path880" />
      <path
         d="m 187.49999,204.75907 q 0,0.37867 -0.5049,0.37867 h -1.32536 v -0.98275 q -1.48765,1.25323 -3.18267,1.25323 -1.07291,0 -1.7942,-0.52293 -0.82046,-0.58604 -0.82046,-1.62289 0,-1.27126 1.22619,-1.93845 0.98275,-0.54096 2.35319,-0.54096 0.97373,0 2.21795,0.25245 v -1.10898 q 0,-0.7303 -0.72129,-1.09996 -0.55899,-0.28851 -1.36142,-0.28851 -0.51392,0 -1.47863,0.2795 -0.95571,0.27048 -1.09095,0.27048 -0.31556,0 -0.31556,-0.34261 0,-0.12623 0.0811,-0.2254 0.15328,-0.18033 1.32537,-0.43278 1.09094,-0.24343 1.51469,-0.24343 1.04587,0 1.83026,0.5049 0.91062,0.57703 0.91062,1.57781 l -0.009,4.44492 h 0.64014 q 0.5049,0 0.5049,0.38769 z m -1.83026,-1.5147 v -1.50568 q -0.92866,-0.27048 -2.14582,-0.27048 -1.05488,0 -1.88436,0.37867 -1.08193,0.48687 -1.08193,1.41552 0,0.73932 0.60408,1.12701 0.51391,0.33359 1.29831,0.33359 1.66797,0 3.20972,-1.47863 z"
         style="font-style:normal;font-variant:normal;font-weight:bold;font-stretch:normal;font-family:'Estrangelo Antioch';-inkscape-font-specification:'Estrangelo Antioch Bold';fill:#5e5e5e;fill-opacity:1;stroke-width:0.46162206px"
         id="path882" />
      <path
         d="m 197.76928,203.70419 q 0,0.35162 -0.82948,0.89259 -1.31635,0.86554 -2.94825,0.86554 -1.64994,0 -2.71383,-1.03685 -1.0639,-1.04586 -1.0639,-2.68678 0,-1.65896 1.08193,-2.74088 1.08192,-1.09095 2.74088,-1.09095 1.56879,0 2.6417,0.93767 V 198.547 q 0.009,-0.3967 0.3336,-0.3967 0.35162,0 0.35162,0.45982 v 1.55076 q 0,0.45982 -0.35162,0.45982 -0.13524,0 -0.2254,-0.0902 l -0.16229,-0.53195 q -0.13524,-0.45982 -0.71227,-0.88357 -0.70325,-0.51392 -1.91141,-0.51392 -1.38847,0 -2.24499,0.87456 -0.85653,0.86554 -0.85653,2.25401 0,1.36143 0.87456,2.20894 0.88357,0.8475 2.245,0.8475 1.71305,0 3.11955,-1.24421 0.18934,-0.16229 0.29753,-0.16229 0.3336,0 0.3336,0.32458 z"
         style="font-style:normal;font-variant:normal;font-weight:bold;font-stretch:normal;font-family:'Estrangelo Antioch';-inkscape-font-specification:'Estrangelo Antioch Bold';fill:#5e5e5e;fill-opacity:1;stroke-width:0.46162206px"
         id="path884" />
    </g>
  </g>
</svg>
